<svg width="16" height="16" viewBox="0 0 16 16" fill="none" xmlns="http://www.w3.org/2000/svg">
<path d="M6.02803 12.6687H9.97203C9.89322 13.1347 9.65194 13.5577 9.29096 13.8628C8.92999 14.1678 8.47264 14.3352 8.00003 14.3352C7.52742 14.3352 7.07007 14.1678 6.7091 13.8628C6.34812 13.5577 6.10683 13.1347 6.02803 12.6687ZM8.00003 1.33533C9.32611 1.33533 10.5979 1.86212 11.5356 2.7998C12.4732 3.73748 13 5.00925 13 6.33533V9.002L13.9454 11.1087C13.9883 11.205 14.0066 11.3106 13.9984 11.4158C13.9902 11.5209 13.9559 11.6224 13.8985 11.711C13.8412 11.7995 13.7626 11.8723 13.67 11.9228C13.5773 11.9733 13.4735 11.9998 13.368 12H2.6347C2.52905 12 2.42509 11.9735 2.33227 11.9231C2.23946 11.8726 2.16074 11.7997 2.10329 11.7111C2.04584 11.6224 2.01149 11.5208 2.00335 11.4155C1.99521 11.3101 2.01355 11.2044 2.0567 11.108L3.00003 9.00133V6.32667L3.00336 6.16C3.04897 4.86523 3.59536 3.63872 4.52743 2.73886C5.4595 1.839 6.70446 1.33539 8.00003 1.33533Z" fill="white"/>
</svg>
