<svg width="12" height="12" viewBox="0 0 12 12" fill="none" xmlns="http://www.w3.org/2000/svg">
<path d="M6.97002 2.49998L9.50052 5.02998L9.01952 5.51098C8.54895 5.47187 8.07551 5.53577 7.63215 5.69824C7.18878 5.8607 6.78615 6.11782 6.45226 6.45171C6.11837 6.7856 5.86124 7.18824 5.69878 7.6316C5.53631 8.07497 5.47241 8.54841 5.51152 9.01898L4.53152 9.99898C4.39295 10.1375 4.2206 10.2375 4.03152 10.289L1.47402 10.9865C1.41032 11.0037 1.34319 11.0039 1.27941 10.9869C1.21564 10.9699 1.15748 10.9364 1.11081 10.8897C1.06414 10.843 1.03062 10.7849 1.01362 10.7211C0.996627 10.6573 0.996765 10.5902 1.01402 10.5265L1.71102 7.96848C1.76249 7.7794 1.86246 7.60704 2.00102 7.46848L6.97002 2.49998ZM10.5155 1.48498C10.8509 1.82054 11.0393 2.27555 11.0393 2.74998C11.0393 3.2244 10.8509 3.67941 10.5155 4.01498L10.0305 4.49998L7.50002 1.96998L7.98502 1.48498C8.15115 1.31878 8.3484 1.18695 8.5655 1.097C8.78259 1.00705 9.01528 0.960754 9.25027 0.960754C9.48526 0.960754 9.71795 1.00705 9.93505 1.097C10.1521 1.18695 10.3494 1.31878 10.5155 1.48498ZM7.14002 6.98698C7.17741 7.11628 7.18831 7.2518 7.17206 7.38542C7.15582 7.51903 7.11277 7.64799 7.04549 7.76457C6.97822 7.88115 6.8881 7.98295 6.78053 8.06387C6.67297 8.14478 6.55018 8.20315 6.41952 8.23548L6.12752 8.30748C6.08072 8.6069 6.08173 8.91186 6.13052 9.21098L6.40052 9.27598C6.53231 9.30772 6.65627 9.36593 6.76487 9.44707C6.87346 9.5282 6.96443 9.63057 7.03224 9.74795C7.10005 9.86533 7.14329 9.99527 7.15932 10.1299C7.17536 10.2645 7.16386 10.401 7.12552 10.531L7.03202 10.847C7.25202 11.04 7.50202 11.1965 7.77402 11.3075L8.02102 11.0485C8.11443 10.9502 8.22685 10.872 8.35144 10.8185C8.47603 10.7651 8.61019 10.7375 8.74577 10.7375C8.88135 10.7375 9.01551 10.7651 9.1401 10.8185C9.26469 10.872 9.37711 10.9502 9.47052 11.0485L9.71952 11.311C9.99025 11.2009 10.2408 11.0466 10.461 10.8545L10.362 10.5115C10.3247 10.3822 10.3139 10.2467 10.3302 10.1131C10.3465 9.9795 10.3896 9.85058 10.457 9.73405C10.5243 9.61752 10.6144 9.51578 10.722 9.43492C10.8296 9.35406 10.9524 9.29575 11.083 9.26348L11.3745 9.19148C11.4214 8.89188 11.4204 8.58675 11.3715 8.28748L11.1015 8.22248C10.9697 8.19073 10.8458 8.13252 10.7372 8.05139C10.6286 7.97025 10.5376 7.86788 10.4698 7.7505C10.402 7.63312 10.3588 7.50318 10.3427 7.36857C10.3267 7.23396 10.3382 7.0975 10.3765 6.96748L10.47 6.65248C10.25 6.45849 9.99927 6.30253 9.72802 6.19098L9.48152 6.45048C9.3881 6.54881 9.27565 6.62712 9.15101 6.68063C9.02638 6.73413 8.89216 6.76173 8.75652 6.76173C8.62088 6.76173 8.48666 6.73413 8.36203 6.68063C8.23739 6.62712 8.12494 6.54881 8.03152 6.45048L7.78252 6.18798C7.51052 6.29798 7.26052 6.45298 7.04102 6.64398L7.14002 6.98698ZM8.75052 9.49998C8.35052 9.49998 8.02552 9.16398 8.02552 8.74998C8.02552 8.33548 8.35052 7.99998 8.75052 7.99998C9.15052 7.99998 9.47552 8.33548 9.47552 8.74998C9.47552 9.16398 9.15052 9.49998 8.75052 9.49998Z" fill="white"/>
</svg>
