<svg width="16" height="16" viewBox="0 0 16 16" fill="none" xmlns="http://www.w3.org/2000/svg">
<path d="M7.99997 6.00333C8.70722 6.00333 9.3855 6.28428 9.88559 6.78438C10.3857 7.28448 10.6666 7.96276 10.6666 8.67C10.6666 9.37724 10.3857 10.0555 9.88559 10.5556C9.3855 11.0557 8.70722 11.3367 7.99997 11.3367C7.29273 11.3367 6.61445 11.0557 6.11436 10.5556C5.61426 10.0555 5.33331 9.37724 5.33331 8.67C5.33331 7.96276 5.61426 7.28448 6.11436 6.78438C6.61445 6.28428 7.29273 6.00333 7.99997 6.00333ZM7.99997 3.66667C11.0753 3.66667 13.7306 5.76667 14.4673 8.70933C14.4996 8.83796 14.4794 8.97414 14.4113 9.08791C14.3431 9.20169 14.2326 9.28373 14.104 9.316C13.9753 9.34827 13.8392 9.32812 13.7254 9.25998C13.6116 9.19184 13.5296 9.0813 13.4973 8.95267C13.1891 7.72787 12.4808 6.64107 11.4846 5.86469C10.4885 5.08832 9.26157 4.66685 7.9986 4.66716C6.73563 4.66746 5.50894 5.08953 4.51316 5.86639C3.51738 6.64324 2.80955 7.73039 2.50197 8.95533C2.46744 9.08129 2.38498 9.18873 2.27225 9.25467C2.15952 9.32062 2.02546 9.33985 1.89874 9.30823C1.77203 9.27662 1.66271 9.19668 1.59416 9.0855C1.52562 8.97433 1.5033 8.84075 1.53197 8.71333C1.89349 7.27164 2.72628 5.99204 3.89811 5.07771C5.06995 4.16339 6.51364 3.66676 7.99997 3.66667Z" fill="white"/>
</svg>
