<svg width="7" height="12" viewBox="0 0 7 12" fill="none" xmlns="http://www.w3.org/2000/svg">
<path d="M0.528721 11.138C0.40374 11.013 0.33353 10.8434 0.33353 10.6667C0.33353 10.4899 0.40374 10.3204 0.528721 10.1953L4.72405 6L0.52872 1.80467C0.465047 1.74317 0.414258 1.66961 0.379319 1.58827C0.34438 1.50693 0.325989 1.41945 0.32522 1.33093C0.324451 1.24241 0.341319 1.15463 0.374839 1.0727C0.40836 0.990767 0.457862 0.916331 0.520457 0.853737C0.583052 0.791141 0.657487 0.741639 0.739418 0.708118C0.821348 0.674598 0.909135 0.65773 0.997654 0.658499C1.08617 0.659268 1.17365 0.67766 1.25499 0.712599C1.33633 0.747539 1.40989 0.798325 1.47139 0.861999L6.13805 5.52867C6.26303 5.65368 6.33324 5.82322 6.33324 6C6.33324 6.17678 6.26303 6.34631 6.13805 6.47133L1.47139 11.138C1.34637 11.263 1.17683 11.3332 1.00005 11.3332C0.823278 11.3332 0.653739 11.263 0.528721 11.138Z" fill="white"/>
</svg>
