<svg height="1667" viewBox="0 0 384.00000000000006 214.06000000000003" width="2500" xmlns="http://www.w3.org/2000/svg"><path d="M156.9 64l-14.45 14.46L128 64l14.45-14.45zM192 28.91l24.77 24.77 14.46-14.45L192 0l-39.23 39.23 14.46 14.45zm49.55 20.64L227.1 64l14.45 14.46L256 64zM192 99.1l-24.77-24.77-14.46 14.45L192 128l39.23-39.22-14.46-14.45zm0-20.64L206.45 64 192 49.55 177.55 64zM47.75 197.69v-.14c0-7.55-4-11.32-10.51-13.81 4-2.24 7.38-5.77 7.38-12.11v-.16c0-8.83-7.06-14.53-18.54-14.53H0v56.18h26.72c12.68-.02 21.03-5.16 21.03-15.43zm-15.41-24c0 4.18-3.45 5.94-8.91 5.94H12v-11.88h12.2c5.21 0 8.1 2.09 8.1 5.78zm3.13 22.47c0 4.18-3.29 6.1-8.75 6.1H12V189.9h14.32c6.34 0 9.15 2.33 9.15 6.1zm38.2 16.94v-56.18H61.31v56.18zm66.43 0v-56.18h-12.2v34.63l-26.32-34.59h-11.4v56.18h12.2v-35.76l27.21 35.72zm68.46 0l-24.08-56.55h-11.39L149 213.1h12.6l5.14-12.6h23.76l5.14 12.6zm-22.47-23.55h-14.93l7.46-18.21zm81.38 23.52v-56.15h-12.2v34.63L229 156.92h-11.4v56.18h12.2v-35.72L257 213.1zm63.8-9.07l-7.86-8c-4.42 4-8.35 6.58-14.77 6.58-9.63 0-16.29-8-16.29-17.65v-.16c0-9.63 6.82-17.5 16.29-17.5 5.62 0 10 2.41 14.37 6.34l7.86-9.07c-5.22-5.13-11.56-8.66-22.15-8.66-17.25 0-29.29 13.08-29.29 29.05v.16c0 16.13 12.28 28.89 28.81 28.89 10.83.08 17.25-3.77 23.03-9.95zm52.73 9.1v-11h-30.5v-11.8H380v-11h-26.5v-11.38h30.1v-11h-42.37v56.18z" fill="#f0b90b"/></svg>