<svg width="824" height="162" viewBox="0 0 824 162" fill="none" xmlns="http://www.w3.org/2000/svg">
<path d="M66.7669 55.5488L50.0751 45.8875L0 74.8683V132.827L50.0751 161.808L100.153 132.827V42.6671L127.972 26.568L155.794 42.6671V74.8683L127.972 90.9674L111.28 81.3092V107.066L127.972 116.728L178.047 87.7469V29.7884L127.972 0.807617L77.8968 29.7884V119.948L50.0751 136.047L22.2567 119.948V87.7469L50.0751 71.6479L66.7669 81.3061V55.5488Z" fill="#6600FF"/>
<path fill-rule="evenodd" clip-rule="evenodd" d="M422.293 125.559H444.833V2.00757H422.293V125.559ZM277.389 37.7346C288.072 37.7346 296.929 42.026 303.933 50.5958C310.951 59.1656 314.447 69.7964 314.447 82.488C314.447 95.1797 310.938 105.81 303.933 114.38C296.916 122.95 288.072 127.241 277.389 127.241C269.824 127.241 263.25 124.907 257.693 120.224C252.241 115.437 248.236 108.98 245.667 100.854V158.951H223.127V39.4042H245.667V64.1092C248.223 55.9829 252.241 49.5784 257.693 44.9087C263.263 40.1216 269.824 37.7346 277.389 37.7346ZM269.198 106.697C275.315 106.697 280.494 104.415 284.72 99.8493C288.946 95.1796 291.059 89.3882 291.059 82.488C291.059 75.5878 288.946 70.0181 284.72 65.4528C280.494 60.7831 275.315 58.4352 269.198 58.4352C262.402 58.4352 256.793 60.7178 252.332 65.2832C247.884 69.8485 245.654 75.5748 245.654 82.475C245.654 89.3751 247.884 95.1666 252.332 99.8363C256.78 104.402 262.402 106.684 269.198 106.684V106.697ZM320.434 82.488C320.434 95.1797 324.83 105.81 333.621 114.38C342.413 122.95 353.383 127.241 366.518 127.241C379.653 127.241 390.623 122.95 399.414 114.38C408.206 105.81 412.602 95.1797 412.602 82.488C412.602 69.7964 408.206 59.1656 399.414 50.5958C390.623 42.026 379.653 37.7346 366.518 37.7346C353.383 37.7346 342.413 42.026 333.621 50.5958C324.83 59.1656 320.434 69.7964 320.434 82.488ZM350.317 99.8493C345.974 95.1796 343.808 89.3882 343.808 82.488C343.808 75.5878 345.974 70.0181 350.317 65.4528C354.661 60.7831 360.061 58.4352 366.518 58.4352C372.975 58.4352 378.375 60.7178 382.718 65.2832C387.062 69.8485 389.227 75.5748 389.227 82.475C389.227 89.3751 387.062 95.1666 382.718 99.8363C378.375 104.402 372.975 106.684 366.518 106.684C360.061 106.684 354.661 104.402 350.317 99.8363V99.8493ZM653.065 114.38C644.273 105.81 639.877 95.1797 639.877 82.488C639.877 69.7964 644.273 59.1656 653.065 50.5958C661.856 42.026 672.826 37.7346 685.961 37.7346C699.096 37.7346 710.066 42.026 718.858 50.5958C727.649 59.1656 732.045 69.7964 732.045 82.488C732.045 95.1797 727.649 105.81 718.858 114.38C710.066 122.95 699.096 127.241 685.961 127.241C672.826 127.241 661.869 122.95 653.065 114.38ZM663.239 82.488C663.239 89.3882 665.404 95.1796 669.748 99.8493C674.091 104.415 679.491 106.697 685.948 106.697C692.405 106.697 697.805 104.415 702.149 99.8493C706.492 95.1796 708.657 89.3882 708.657 82.488C708.657 75.5878 706.492 69.8485 702.149 65.2962C697.805 60.7309 692.405 58.4482 685.948 58.4482C679.491 58.4482 674.091 60.7831 669.748 65.4658C665.404 70.0312 663.239 75.7052 663.239 82.501V82.488ZM792.034 37.7346C801.608 37.7346 809.291 41.0738 815.069 47.7523C820.965 54.4307 823.913 62.9483 823.913 73.2921V125.546H801.373V77.2966C801.373 71.7268 799.599 67.1615 796.025 63.6005C792.464 60.0396 788.016 58.2526 782.668 58.2526C776.655 58.2526 771.763 60.0396 767.981 63.6005C764.198 67.1615 762.307 71.7268 762.307 77.2966V125.546H739.767V39.4042H762.307V61.4483C764.537 54.1046 768.268 48.3132 773.498 44.087C778.846 39.8608 785.016 37.7477 792.034 37.7477V37.7346ZM498.978 102.589L522.013 39.4825H544.892L497.478 159.029H474.599L486.625 128.637L451.394 39.4825H475.773L498.978 102.589ZM608.99 39.4042V60.9918C604.294 46.9044 592.698 39.4042 577.267 39.4042C553.971 39.4042 540.196 59.7526 540.196 81.1445C540.196 102.536 553.866 124.554 577.267 124.554C592.698 124.554 604.294 113.428 608.99 99.3406V115.867C608.99 122.885 606.707 128.663 602.142 133.229C597.576 137.794 592.02 140.077 585.445 140.077C576.537 140.077 569.923 135.629 565.58 126.72L545.375 137.403C549.158 144.42 554.558 150.029 561.575 154.268C568.593 158.494 576.55 160.608 585.445 160.608C598.581 160.608 609.55 156.329 618.342 147.746C627.134 139.176 631.529 128.546 631.529 115.854V39.4042H608.99ZM602.481 97.5145C598.137 101.858 592.685 104.023 586.124 104.023C579.563 104.023 574.436 101.858 570.093 97.5145C565.749 93.0666 563.584 87.6142 563.584 81.1575C563.584 74.7008 565.749 69.3007 570.093 64.9571C574.436 60.6135 579.771 58.4482 586.124 58.4482C592.476 58.4482 598.15 60.6135 602.481 64.9571C606.824 69.1833 608.99 74.5835 608.99 81.1575C608.99 87.7316 606.824 93.184 602.481 97.5145Z" fill="black"/>
</svg>
