<svg width="1176" height="511" viewBox="0 0 1176 511" fill="none" xmlns="http://www.w3.org/2000/svg">
<path d="M695.09 2.67188L606.867 211.2H705.784L794.007 2.67188H695.09Z" fill="white"/>
<path d="M548.053 2.67188H376.953V88.2217H462.503V211.2H548.053V2.67188Z" fill="white"/>
<circle cx="609.544" cy="42.7749" r="42.7749" fill="white"/>
<path d="M43.7518 434.328H73.4185V318.099H112.229V290.058H5.34766V318.099H43.7518V434.328Z" fill="white"/>
<path d="M112.272 434.328H140.11V385.764C140.11 368.898 148.847 358.738 162.055 358.738C166.729 358.738 170.386 359.551 174.653 360.974V332.729C171.199 331.713 168.354 331.51 165.306 331.51C153.927 331.51 143.564 339.028 140.11 348.985V332.729H112.272V434.328Z" fill="white"/>
<path d="M228.084 436.563C242.105 436.563 252.671 429.451 257.345 422.949V434.328H285.183V332.729H257.345V344.108C252.671 337.606 242.105 330.494 228.084 330.494C201.059 330.494 180.333 354.878 180.333 383.528C180.333 412.179 201.059 436.563 228.084 436.563ZM233.977 411.163C218.534 411.163 208.374 399.581 208.374 383.528C208.374 367.476 218.534 355.894 233.977 355.894C249.42 355.894 259.58 367.476 259.58 383.528C259.58 399.581 249.42 411.163 233.977 411.163Z" fill="white"/>
<path d="M351.463 436.563C365.483 436.563 376.05 429.451 380.723 422.949V434.328H408.561V281.93H380.723V344.108C376.05 337.606 365.483 330.494 351.463 330.494C324.438 330.494 303.712 354.878 303.712 383.528C303.712 412.179 324.438 436.563 351.463 436.563ZM357.356 411.163C341.913 411.163 331.753 399.581 331.753 383.528C331.753 367.476 341.913 355.894 357.356 355.894C372.799 355.894 382.958 367.476 382.958 383.528C382.958 399.581 372.799 411.163 357.356 411.163Z" fill="white"/>
<path d="M447.41 316.067C457.366 316.067 465.291 308.142 465.291 298.389C465.291 288.636 457.366 280.711 447.41 280.711C437.86 280.711 429.732 288.636 429.732 298.389C429.732 308.142 437.86 316.067 447.41 316.067ZM433.592 434.328H461.43V332.729H433.592V434.328Z" fill="white"/>
<path d="M486.13 434.328H513.968V384.748C513.968 365.241 523.518 355.894 536.523 355.894C548.105 355.894 554.404 364.834 554.404 379.464V434.328H582.242V374.791C582.242 348.375 567.612 330.494 543.025 330.494C529.817 330.494 519.454 336.184 513.968 344.311V332.729H486.13V434.328Z" fill="white"/>
<path d="M653.083 407.912C639.062 407.912 627.277 397.346 627.277 381.903C627.277 366.257 639.062 355.894 653.083 355.894C667.103 355.894 678.889 366.257 678.889 381.903C678.889 397.346 667.103 407.912 653.083 407.912ZM649.832 478.828C680.921 478.828 704.492 462.978 704.492 426.403V332.729H676.654V344.108C671.167 336.184 660.195 330.494 647.19 330.494C620.571 330.494 599.236 353.252 599.236 381.903C599.236 410.35 620.571 433.108 647.19 433.108C660.195 433.108 671.167 427.216 676.654 419.697V426.606C676.654 442.862 665.884 454.444 649.425 454.444C638.046 454.444 626.667 450.583 617.727 441.846L602.487 462.572C614.069 473.748 632.154 478.828 649.832 478.828Z" fill="white"/>
<path d="M763.35 434.328H789.563L849.302 290.058H816.791L776.558 390.234L735.716 290.058H703.814L763.35 434.328Z" fill="white"/>
<path d="M874.845 316.067C884.802 316.067 892.726 308.142 892.726 298.389C892.726 288.636 884.802 280.711 874.845 280.711C865.295 280.711 857.167 288.636 857.167 298.389C857.167 308.142 865.295 316.067 874.845 316.067ZM861.027 434.328H888.865V332.729H861.027V434.328Z" fill="white"/>
<path d="M960.91 436.563C982.245 436.563 998.501 427.622 1008.05 413.805L987.325 398.362C982.652 405.474 973.914 411.163 961.113 411.163C947.702 411.163 935.713 403.645 934.088 390.031H1010.08C1010.69 385.764 1010.49 382.919 1010.49 380.48C1010.49 347.359 987.122 330.494 960.503 330.494C929.618 330.494 907.063 353.455 907.063 383.528C907.063 415.633 930.633 436.563 960.91 436.563ZM935.104 371.133C937.745 358.738 949.327 353.455 959.69 353.455C970.053 353.455 980.213 358.942 982.652 371.133H935.104Z" fill="white"/>
<path d="M1114.78 434.328H1142.42L1175.95 332.729H1146.08L1126.98 397.752L1106.25 332.729H1084.91L1064.39 397.752L1045.09 332.729H1015.42L1049.15 434.328H1076.79L1095.68 376.62L1114.78 434.328Z" fill="white"/>
</svg>
