<svg xmlns="http://www.w3.org/2000/svg" xmlns:xlink="http://www.w3.org/1999/xlink" width="230" zoomAndPan="magnify" viewBox="0 0 172.5 37.5" height="50" preserveAspectRatio="xMidYMid meet" version="1.0"><defs><g/><clipPath id="8f63f1fc7e"><path d="M 2.472656 8.492188 L 24.675781 8.492188 L 24.675781 28.476562 L 2.472656 28.476562 Z M 2.472656 8.492188 " clip-rule="nonzero"/></clipPath></defs><g clip-path="url(#8f63f1fc7e)"><path fill="#a6a6a6" d="M 4.746094 19.511719 C 7.484375 17.136719 9.898438 14.382812 11.910156 11.371094 L 8.171875 11.371094 C 8.390625 11.761719 8.617188 12.167969 8.847656 12.5625 C 8.226562 13.371094 7.570312 14.152344 6.886719 14.910156 C 5.621094 12.855469 4.503906 10.71875 3.558594 8.492188 L 16.914062 8.492188 C 16.089844 10.144531 15.15625 11.726562 14.128906 13.25 C 12.59375 15.523438 10.832031 17.660156 8.890625 19.601562 C 8.09375 20.394531 7.265625 21.160156 6.410156 21.894531 C 7.042969 22.734375 7.710938 23.550781 8.40625 24.339844 C 13.480469 20.015625 17.605469 14.613281 20.429688 8.492188 L 23.589844 8.492188 C 22.375 11.332031 20.882812 14.070312 19.148438 16.636719 C 17.398438 19.230469 15.386719 21.664062 13.171875 23.882812 C 12.285156 24.769531 11.359375 25.625 10.40625 26.441406 C 9.667969 27.074219 8.914062 27.683594 8.140625 28.269531 C 8.113281 28.242188 8.085938 28.214844 8.054688 28.1875 C 7.398438 27.53125 6.761719 26.851562 6.148438 26.148438 C 5.449219 25.355469 4.785156 24.539062 4.148438 23.699219 C 3.6875 23.089844 3.246094 22.472656 2.820312 21.839844 C 2.707031 21.671875 2.59375 21.503906 2.480469 21.335938 C 3.257812 20.753906 4.011719 20.148438 4.746094 19.511719 Z M 16.820312 22.605469 C 16.183594 23.332031 15.527344 24.042969 14.855469 24.734375 C 15.46875 25.320312 16.097656 25.886719 16.746094 26.441406 C 17.480469 27.074219 18.238281 27.683594 19.007812 28.269531 C 19.039062 28.242188 19.066406 28.214844 19.09375 28.1875 C 19.75 27.53125 20.386719 26.851562 21.003906 26.148438 C 21.699219 25.355469 22.367188 24.539062 23 23.699219 C 23.460938 23.089844 23.90625 22.46875 24.332031 21.839844 C 24.445312 21.671875 24.554688 21.503906 24.667969 21.332031 C 23.890625 20.753906 23.136719 20.144531 22.40625 19.507812 C 21.765625 18.953125 21.144531 18.378906 20.539062 17.785156 C 19.992188 18.589844 19.417969 19.382812 18.824219 20.15625 C 19.445312 20.753906 20.085938 21.332031 20.738281 21.894531 C 20.105469 22.734375 19.4375 23.550781 18.742188 24.339844 C 18.085938 23.78125 17.441406 23.203125 16.820312 22.605469 Z M 16.820312 22.605469 " fill-opacity="1" fill-rule="nonzero"/></g><g fill="#a6a6a6" fill-opacity="1"><g transform="translate(28.128392, 21.833882)"><g><path d="M 0.0742188 -7.335938 L 11.894531 -7.335938 L 3.46875 0 L 0.386719 0 L 6.90625 -5.722656 L 1.992188 -5.722656 Z M 5.335938 -1.613281 L 12.585938 -1.613281 L 10.679688 0 L 5.335938 0 Z M 5.335938 -1.613281 "/></g></g></g><g fill="#a6a6a6" fill-opacity="1"><g transform="translate(40.84815, 21.833882)"><g><path d="M 0 -7.335938 L 11.078125 -7.335938 L 9.160156 -5.722656 L 6.496094 -5.722656 L 6.496094 0 L 4.578125 0 L 4.578125 -5.722656 L 1.917969 -5.722656 Z M 0 -7.335938 "/></g></g></g><g fill="#a6a6a6" fill-opacity="1"><g transform="translate(51.922928, 21.833882)"><g><path d="M 12.011719 -7.335938 L 8.363281 -3.792969 L 12.011719 0 L 9.664062 0 L 5.953125 -3.824219 L 7.984375 -5.722656 L 2.652344 -5.722656 L 0.734375 -7.335938 L 9.695312 -7.335938 L 9.695312 -7.304688 L 9.726562 -7.335938 Z M 2.652344 0 L 0.722656 0 L 0.722656 -5.722656 L 2.652344 -5.722656 Z M 2.652344 0 "/></g></g></g><g fill="#a6a6a6" fill-opacity="1"><g transform="translate(63.290875, 21.833882)"><g><path d="M 2.777344 -3.824219 L 4.875 -1.613281 L 11.160156 -1.613281 L 9.253906 0 L 3.785156 0 L 0.148438 -3.824219 L 3.65625 -7.335938 L 11.359375 -7.335938 L 9.640625 -5.722656 L 4.632812 -5.722656 Z M 4.558594 -2.964844 L 4.558594 -4.589844 L 10.039062 -4.589844 L 8.121094 -2.964844 Z M 4.558594 -2.964844 "/></g></g></g><g fill="#a6a6a6" fill-opacity="1"><g transform="translate(74.187374, 21.833882)"><g><path d="M 2.777344 -3.824219 L 4.875 -1.613281 L 11.160156 -1.613281 L 9.253906 0 L 3.785156 0 L 0.148438 -3.824219 L 3.65625 -7.335938 L 11.359375 -7.335938 L 9.640625 -5.722656 L 4.632812 -5.722656 Z M 2.777344 -3.824219 "/></g></g></g><g fill="#a6a6a6" fill-opacity="1"><g transform="translate(85.702204, 21.833882)"><g><path d="M 12.011719 -7.335938 L 8.363281 -3.792969 L 12.011719 0 L 9.664062 0 L 5.953125 -3.824219 L 7.984375 -5.722656 L 2.652344 -5.722656 L 0.734375 -7.335938 L 9.695312 -7.335938 L 9.695312 -7.304688 L 9.726562 -7.335938 Z M 2.652344 0 L 0.722656 0 L 0.722656 -5.722656 L 2.652344 -5.722656 Z M 2.652344 0 "/></g></g></g><g fill="#a6a6a6" fill-opacity="1"><g transform="translate(97.877129, 21.833882)"><g><path d="M 2.296875 -7.335938 L 2.296875 -5.386719 L 6.675781 -3.816406 L 6.675781 0 L 4.746094 0 L 4.746094 -2.714844 L 0.367188 -4.339844 L 0.367188 -7.335938 Z M 9.515625 -7.335938 L 11.433594 -7.335938 L 11.433594 -4.339844 L 10.480469 -3.816406 L 6.675781 -3.816406 L 9.515625 -5.15625 Z M 9.515625 -7.335938 "/></g></g></g><g fill="#a6a6a6" fill-opacity="1"><g transform="translate(109.695811, 21.833882)"><g><path d="M 0.734375 -7.335938 L 12.011719 -7.335938 L 7.285156 -2.390625 L 7.285156 -2.378906 L 3.699219 -2.378906 L 3.699219 -4.003906 L 6.476562 -4.003906 L 8.152344 -5.722656 L 2.652344 -5.722656 Z M 2.652344 0 L 0.722656 0 L 0.722656 -5.722656 L 2.652344 -5.722656 Z M 2.652344 0 "/></g></g></g><g fill="#a6a6a6" fill-opacity="1"><g transform="translate(121.734524, 21.833882)"><g><path d="M 0 -7.335938 L 11.078125 -7.335938 L 9.160156 -5.722656 L 6.496094 -5.722656 L 6.496094 0 L 4.578125 0 L 4.578125 -5.722656 L 1.917969 -5.722656 Z M 0 -7.335938 "/></g></g></g><g fill="#a6a6a6" fill-opacity="1"><g transform="translate(131.59359, 21.833882)"><g><path d="M 3.65625 -7.335938 L 10.175781 -7.335938 L 13.675781 -3.824219 L 10.039062 0 L 3.785156 0 L 0.148438 -3.824219 Z M 8.960938 -1.613281 L 11.046875 -3.824219 L 9.203125 -5.722656 L 4.632812 -5.722656 L 2.777344 -3.824219 L 4.875 -1.613281 Z M 8.960938 -1.613281 "/></g></g></g><g fill="#a6a6a6" fill-opacity="1"><g transform="translate(144.941877, 21.833882)"><g><path d="M 2.796875 -2.042969 L 3.773438 -1.070312 L 2.757812 0 L 1.519531 0 L 0.503906 -1.070312 L 1.476562 -2.042969 Z M 2.796875 -2.042969 "/></g></g></g><g fill="#a6a6a6" fill-opacity="1"><g transform="translate(149.216719, 21.833882)"><g><path d="M 0.785156 -7.335938 L 2.714844 -7.335938 L 2.714844 0 L 0.785156 0 Z M 0.785156 -7.335938 "/></g></g></g><g fill="#a6a6a6" fill-opacity="1"><g transform="translate(152.716228, 21.833882)"><g><path d="M 3.65625 -7.335938 L 10.175781 -7.335938 L 13.675781 -3.824219 L 10.039062 0 L 3.785156 0 L 0.148438 -3.824219 Z M 8.960938 -1.613281 L 11.046875 -3.824219 L 9.203125 -5.722656 L 4.632812 -5.722656 L 2.777344 -3.824219 L 4.875 -1.613281 Z M 8.960938 -1.613281 "/></g></g></g></svg>